<?xml version="1.0" encoding="utf-8"?>
<!-- Generator: Adobe Illustrator 16.0.0, SVG Export Plug-In . SVG Version: 6.00 Build 0)  -->
<!DOCTYPE svg PUBLIC "-//W3C//DTD SVG 1.1//EN" "http://www.w3.org/Graphics/SVG/1.1/DTD/svg11.dtd">
<svg version="1.1" id="Layer_2" xmlns="http://www.w3.org/2000/svg" xmlns:xlink="http://www.w3.org/1999/xlink" x="0px" y="0px"
	 width="2520.637px" height="2520.637px" viewBox="0 0 2520.637 2520.637" enable-background="new 0 0 2520.637 2520.637"
	 xml:space="preserve">
<path fill="#FFFFFF" d="M2021.555,1460.596c0,10.879-9.066,20.548-20.551,20.548c-11.483,0-20.547-9.669-20.547-20.548v-366.418
	c0-10.879,9.063-20.548,20.547-20.548c11.484,0,20.551,9.669,20.551,20.548V1460.596z"/>
<path fill="#FFFFFF" d="M1602.652,1476.307c-10.875,0-19.338-8.459-19.338-19.341c0-4.228,1.209-7.857,3.626-11.479l224.812-337.215
	h-196.41c-10.875,0-19.334-8.462-19.334-19.341c0-10.878,8.459-19.338,19.334-19.338h232.068c10.879,0,19.341,8.459,19.341,19.338
	c0,4.231-1.214,7.857-3.63,11.484l-222.994,337.215h216.347c10.882,0,19.341,8.462,19.341,19.337
	c0,10.882-8.459,19.341-19.341,19.341H1602.652z"/>
<path fill="#FFFFFF" d="M1279.688,1401.129l-123.775-230.376v291.376c0,10.654-8.885,19.539-19.544,19.539
	c-10.661,0-19.545-8.885-19.545-19.539v-368.954c0-10.658,8.884-19.545,19.545-19.545c8.881,0,14.808,5.333,17.767,11.25
	l143.313,268.275l143.91-268.275c2.372-4.144,7.11-11.25,17.768-11.25c10.661,0,19.545,8.887,19.545,19.545v368.954
	c0,10.654-8.884,19.539-19.545,19.539c-10.657,0-19.546-8.885-19.546-19.539v-291.376l-124.365,230.376
	c-4.146,7.697-10.657,11.252-17.767,11.252C1291.532,1412.381,1283.831,1409.418,1279.688,1401.129z"/>
<path fill="#FFFFFF" d="M2167.295,1460.596c0,10.879-9.067,20.548-20.551,20.548c-11.484,0-20.547-9.669-20.547-20.548v-366.418
	c0-10.879,9.062-20.548,20.547-20.548c11.483,0,20.551,9.669,20.551,20.548V1460.596z"/>
<path fill="#F7B618" d="M658.997,1310.429v0.021C658.997,1310.442,658.997,1310.436,658.997,1310.429z"/>
<path fill="#FFFFFF" d="M689.719,1066.163c-4.579,4.575-11.997,4.575-16.573,0l-79.283-79.284c-4.575-4.574-4.575-11.994,0-16.567
	l79.283-79.288c4.576-4.571,11.994-4.571,16.573,0l79.282,79.288c4.577,4.574,4.577,11.993,0,16.567L689.719,1066.163z"/>
<g>
	<path fill="#F7B618" d="M350.767,1310.429v0.021C350.767,1310.442,350.767,1310.436,350.767,1310.429z"/>
	<path fill="#F7B618" d="M999.779,1280.349l-193.204-193.456l-70.365,70.864v267.77v34.476l-35.986,35.643
		c-5.13,5.13-11.979,7.841-18.79,7.721c-6.811,0.12-13.66-2.591-18.79-7.721l-35.986-35.643v-34.476v-267.77l-70.365-70.864
		l-193.204,193.456c-16.619,16.618-16.494,43.562,0.125,60.182l288.084,288.021c8.312,8.312,19.215,12.464,30.116,12.461v0.001
		c0.007,0,0.014,0,0.021,0s0.014,0,0.021,0v-0.001c10.901,0.003,21.804-4.149,30.116-12.461l288.084-288.021
		C1016.273,1323.911,1016.398,1296.967,999.779,1280.349z"/>
</g>
</svg>
